<svg width="22" height="22" viewBox="0 0 22 22" fill="none" xmlns="http://www.w3.org/2000/svg">
<path d="M11.4854 4.88844C11.0082 4.41121 10.2344 4.41121 9.75719 4.88844L4.51032 10.1353C4.03302 10.6126 4.03302 11.3865 4.51032 11.8638L9.75719 17.1107C10.2344 17.5879 11.0082 17.5879 11.4854 17.1107C11.9627 16.6334 11.9627 15.8597 11.4854 15.3824L7.96677 11.8638C7.48946 11.3865 7.48946 10.6126 7.96677 10.1353L11.4854 6.61667C11.9627 6.13943 11.9627 5.36568 11.4854 4.88844Z" fill="#4C4E64" fill-opacity="0.68"/>
<path d="M15.8683 4.88844L10.6214 10.1353C10.1441 10.6126 10.1441 11.3865 10.6214 11.8638L15.8683 17.1107C16.3455 17.5879 17.1193 17.5879 17.5965 17.1107C18.0737 16.6334 18.0737 15.8597 17.5965 15.3824L14.0779 11.8638C13.6005 11.3865 13.6005 10.6126 14.0779 10.1353L17.5965 6.61667C18.0737 6.13943 18.0737 5.36568 17.5965 4.88844C17.1193 4.41121 16.3455 4.41121 15.8683 4.88844Z" fill="#4C4E64" fill-opacity="0.38"/>
</svg>
